<?xml version="1.0" encoding="utf-8"?>
<!-- Generator: Adobe Illustrator 16.0.0, SVG Export Plug-In . SVG Version: 6.00 Build 0)  -->
<!DOCTYPE svg PUBLIC "-//W3C//DTD SVG 1.1//EN" "http://www.w3.org/Graphics/SVG/1.1/DTD/svg11.dtd">
<svg version="1.1" id="Layer_1" xmlns="http://www.w3.org/2000/svg" xmlns:xlink="http://www.w3.org/1999/xlink" x="0px" y="0px"
	 width="300px" height="300px" viewBox="0 0 300 300" enable-background="new 0 0 300 300" xml:space="preserve">
<path fill="#876F4A" d="M111.481,136.037c-2.961-7.302-9.678-12.843-9.678-12.843c1.788-29.775-5.034-60.708-6.348-66.327
	c0.645-0.423,1.098-1.11,1.098-1.923l-0.837-9.777h1.131v-1.323c0-1.296-0.969-2.354-2.154-2.354H79.738
	c-1.185,0-2.154,1.059-2.154,2.354v1.323h1.131l-0.837,9.777c0,0.813,0.453,1.5,1.098,1.923c-1.314,5.616-8.133,36.552-6.345,66.327
	c0,0-11.067,9.09-11.067,19.347c0,0,0,86.067,0,99.348c0,8.952,11.646,10.485,19.245,10.533v0.003h12.699l0,0
	c5.295-0.023,12.603-0.771,16.554-4.26V144.848C110.062,141.776,110.602,138.821,111.481,136.037z"/>
<path fill="#876F4A" d="M229.369,123.194c1.788-29.775-5.034-60.708-6.348-66.327c0.645-0.423,1.098-1.11,1.098-1.923l-0.837-9.777
	h1.131v-1.323c0-1.296-0.97-2.354-2.154-2.354h-14.954c-1.186,0-2.154,1.059-2.154,2.354v1.323h1.131l-0.838,9.777
	c0,0.813,0.453,1.5,1.099,1.923c-1.313,5.616-8.133,36.552-6.345,66.327c0,0-6.721,5.544-9.682,12.849
	c0.879,2.784,1.42,5.733,1.42,8.805v103.314c3.92,3.468,11.153,4.227,16.439,4.26v0.003h12.699l0,0
	c7.596-0.036,19.365-1.539,19.365-10.536c0-13.28,0-99.348,0-99.348C240.436,132.284,229.369,123.194,229.369,123.194z"/>
<path fill="#876F4A" d="M169.669,120.083c2.286-38.112-6.44-77.706-8.124-84.897c0.825-0.543,1.407-1.419,1.407-2.463l-1.071-12.516
	h1.449v-1.692c-0.003-1.659-1.245-3.015-2.76-3.015h-19.144c-1.515,0-2.757,1.356-2.757,3.015v1.692h1.449l-1.071,12.516
	c0,1.041,0.579,1.917,1.404,2.46c-1.683,7.191-10.41,46.785-8.124,84.9c0,0-14.166,11.634-14.166,24.765c0,0,0,110.166,0,127.164
	c0,11.457,14.91,13.419,24.636,13.485v0.003h16.254l0,0c9.72-0.045,24.786-1.968,24.786-13.485c0-16.998,0-127.164,0-127.164
	C183.835,131.72,169.669,120.083,169.669,120.083z"/>
</svg>
