<?xml version="1.0" encoding="iso-8859-1"?>
<!-- Generator: Adobe Illustrator 18.0.0, SVG Export Plug-In . SVG Version: 6.00 Build 0)  -->
<!DOCTYPE svg PUBLIC "-//W3C//DTD SVG 1.1//EN" "http://www.w3.org/Graphics/SVG/1.1/DTD/svg11.dtd">
<svg version="1.1" id="Capa_1" xmlns="http://www.w3.org/2000/svg" xmlns:xlink="http://www.w3.org/1999/xlink" x="0px" y="0px"
	 viewBox="0 0 186 186" style="enable-background:new 0 0 186 186;" xml:space="preserve">
<path d="M85,51h16v8H85V51z M186,161.667C186,175.106,175.106,186,161.667,186H24.333C10.894,186,0,175.106,0,161.667V24.333
	C0,10.894,10.894,0,24.333,0h137.333C175.106,0,186,10.894,186,24.333V161.667z M138.833,66.5c0-4.143-3.357-7.5-7.5-7.5H116v-8.862
	C116,42.103,109.77,36,101.734,36H84.933C76.897,36,70,42.103,70,50.138V59H55.333c-4.143,0-7.5,3.357-7.5,7.5s3.357,7.5,7.5,7.5H57
	v51.345C57,135.06,64.93,143,74.644,143h37.378c9.714,0,16.978-7.94,16.978-17.655V74h2.333C135.476,74,138.833,70.643,138.833,66.5
	z"/>
<g>
</g>
<g>
</g>
<g>
</g>
<g>
</g>
<g>
</g>
<g>
</g>
<g>
</g>
<g>
</g>
<g>
</g>
<g>
</g>
<g>
</g>
<g>
</g>
<g>
</g>
<g>
</g>
<g>
</g>
</svg>
