<?xml version="1.0" encoding="iso-8859-1"?>
<!-- Generator: Adobe Illustrator 16.0.0, SVG Export Plug-In . SVG Version: 6.00 Build 0)  -->
<!DOCTYPE svg PUBLIC "-//W3C//DTD SVG 1.1//EN" "http://www.w3.org/Graphics/SVG/1.1/DTD/svg11.dtd">
<svg version="1.1" id="Capa_1" xmlns="http://www.w3.org/2000/svg" xmlns:xlink="http://www.w3.org/1999/xlink" x="0px" y="0px"
	 width="486.572px" height="486.572px" viewBox="0 0 486.572 486.572" style="enable-background:new 0 0 486.572 486.572;"
	 xml:space="preserve">
<g>
	<g id="icons_19_">
		<g>
			<path d="M391.606,370.298c-22.201,21.519-104.689,43.527-161.185,42.101c-9.299-0.233-12.175-14.386,0.701-14.611
				c26.462-0.464,30.711,2.057,86.074-10.106c14.573-3.2,27.807-5.569,35.901-11.917c12.535-9.826,10.527-33.38-11.857-37.947
				c-26.67-5.442-66.065,0.55-90.462,0.55c-24.395,0-33.774-17.1-68.936-14.762c-52.021,3.458-62.769,8.709-85.3,13.077v-2.137
				c0-10.653-8.248-19.292-18.42-19.292H55.788c-10.174,0-18.42,8.639-18.42,19.292v106.821c0,10.652,8.246,19.29,18.42,19.29
				h22.337c10.172,0,18.42-8.638,18.42-19.29v-1.908c17.8,11.406,80.444,47.862,152.875,47.103
				c85.837-0.904,196.938-73.28,199.648-103.099C451.778,353.644,413.806,348.777,391.606,370.298z"/>
			<path d="M430.784,25.915h-22.337c-10.173,0-18.42,8.638-18.42,19.29v1.908C372.227,35.707,309.583-0.751,237.152,0.012
				C151.315,0.916,40.216,73.292,37.504,103.109c-2.71,29.816,35.263,34.683,57.463,13.165
				c22.201-21.519,104.688-43.527,161.182-42.103c9.3,0.234,12.176,14.385-0.699,14.612c-26.463,0.466-30.712-2.055-86.075,10.108
				c-14.573,3.2-27.807,5.569-35.902,11.916c-12.537,9.825-10.527,33.379,11.858,37.948c26.67,5.442,66.066-0.549,90.462-0.549
				c24.395,0,33.774,17.098,68.937,14.76c52.021-3.459,62.769-8.709,85.3-13.077v2.137c0,10.654,8.247,19.292,18.42,19.292h22.337
				c10.174,0,18.42-8.638,18.42-19.292V45.205C449.204,34.553,440.958,25.915,430.784,25.915z"/>
			<path d="M283.415,176.925c-12.938,0-24.664,5.163-33.254,13.531c-8.59-8.368-20.316-13.531-33.254-13.531
				c-26.332,0-47.678,21.345-47.678,47.677c0,10.221,3.228,19.683,8.704,27.444c2.181,3.412,4.802,6.515,7.787,9.226l49.457,49.532
				c4.952,4.953,9.906,9.906,14.859,9.906c0.041,0,0.083-0.007,0.124-0.007s0.083,0.007,0.124,0.007
				c4.953,0,9.906-4.953,14.858-9.906l49.457-49.532c2.985-2.711,5.606-5.812,7.787-9.226c5.478-7.763,8.704-17.224,8.704-27.444
				C331.093,198.269,309.747,176.925,283.415,176.925z"/>
		</g>
	</g>
</g>
<g>
</g>
<g>
</g>
<g>
</g>
<g>
</g>
<g>
</g>
<g>
</g>
<g>
</g>
<g>
</g>
<g>
</g>
<g>
</g>
<g>
</g>
<g>
</g>
<g>
</g>
<g>
</g>
<g>
</g>
</svg>
