<?xml version="1.0" encoding="utf-8"?>
<!-- Generator: Adobe Illustrator 16.0.0, SVG Export Plug-In . SVG Version: 6.00 Build 0)  -->
<!DOCTYPE svg PUBLIC "-//W3C//DTD SVG 1.1//EN" "http://www.w3.org/Graphics/SVG/1.1/DTD/svg11.dtd">
<svg version="1.1" id="Layer_1" xmlns="http://www.w3.org/2000/svg" xmlns:xlink="http://www.w3.org/1999/xlink" x="0px" y="0px"
	 width="300px" height="300px" viewBox="0 0 300 300" enable-background="new 0 0 300 300" xml:space="preserve">
<path fill="#30250C" d="M240.63,113.507c0-19.644-15.959-35.602-35.603-35.602c-19.642,0-35.602,15.958-35.602,35.602
	c0,19.642,15.96,35.603,35.602,35.603C224.364,149.11,240.63,133.149,240.63,113.507z M201.346,136.219c0-0.92,0-1.535,0-2.455
	c0-1.841,0-1.841-1.842-2.148c-2.148-0.307-3.99-0.922-6.139-1.842c-1.535-0.614-1.535-1.228-1.229-2.763
	c0.308-1.228,0.615-2.455,0.921-3.376c0.308-1.227,0.921-1.535,2.149-0.921c2.148,1.229,4.297,1.842,6.752,2.149
	c1.535,0.306,3.068,0,4.298-0.613c2.763-1.229,3.068-4.297,0.92-6.14c-0.613-0.614-1.535-1.227-2.456-1.534
	c-2.148-0.921-4.604-1.842-6.752-3.069c-3.377-2.148-5.832-4.911-5.524-9.208c0.308-4.91,3.069-7.98,7.365-9.515
	c1.843-0.613,1.843-0.613,1.843-2.455c0-0.613,0-1.226,0-1.84c0-1.535,0.307-1.842,1.842-1.842c0.307,0,0.92,0,1.227,0
	c3.069,0,3.069,0,3.069,3.069c0,2.148,0,2.148,2.148,2.456c1.536,0.306,3.376,0.613,4.91,1.535c0.922,0.308,1.229,0.92,0.922,1.841
	c-0.308,1.228-0.614,2.762-1.228,3.99c-0.306,1.228-0.921,1.535-1.843,0.92c-2.455-1.227-4.91-1.534-7.673-1.534
	c-0.613,0-1.227,0-2.148,0.307c-2.148,0.919-2.763,3.375-0.613,5.218c0.922,0.919,2.148,1.226,3.376,1.841
	c2.148,0.92,3.99,1.534,5.833,2.762c6.137,3.376,7.673,11.049,3.374,16.267c-1.534,1.842-3.682,3.068-5.829,3.683
	c-0.923,0.307-1.537,0.921-1.537,1.84c0,0.922,0,2.149,0,3.07c0,0.922-0.612,1.535-1.534,1.535c-1.227,0-2.147,0-3.376,0
	C201.959,137.754,201.346,137.141,201.346,136.219z M152.853,125.169c-5.524,0-9.822-4.295-9.822-9.82
	c0-5.525,4.298-9.822,9.822-9.822s9.821,4.296,9.821,9.822C162.674,120.566,158.377,125.169,152.853,125.169z M256.591,125.169
	c-5.525,0-9.822-4.295-9.822-9.82c0-5.525,4.297-9.822,9.822-9.822c5.524,0,9.82,4.296,9.82,9.822
	C266.718,120.566,262.115,125.169,256.591,125.169z M299.866,71.458v83.791c0,8.898-7.366,16.265-16.268,16.265h-103.43v-12.276
	c0-0.308,0-0.308,0-0.613c0-0.309,0-0.613,0-1.229h86.549c-0.307-0.92-0.307-2.146-0.307-3.069c0-9.207,7.368-16.572,16.575-16.572
	c0.92,0,1.842,0,2.763,0.306V88.033c-0.921,0.307-1.843,0.307-2.763,0.307c-9.207,0-16.575-7.367-16.575-16.575
	c0-0.92,0-2.147,0.307-3.068H145.792c0.307,1.228,0.614,2.761,0.614,3.99c0,9.207-7.367,16.574-16.574,16.574
	c-1.535,0-2.763-0.307-3.99-0.614v36.522c-2.148,0-4.297-0.306-6.753-0.306c-2.455,0-4.91,0-7.365,0.306V70.845
	c0-8.901,7.365-16.266,16.266-16.266h155.303C292.5,55.193,299.866,62.559,299.866,71.458z M0.313,182.563
	c0,4.911,2.762,11.662,16.574,16.88c8.9,3.376,20.871,5.218,33.454,5.218c2.762,0,5.218,0,7.979-0.305v-2.15v-0.308l0,0l0,0v-8.285
	c-2.454,0.307-5.217,0.307-7.979,0.307c-11.356,0-21.791-1.536-29.465-4.605c-7.672-2.762-9.514-5.829-9.514-6.443v-6.753
	c1.534,0.921,3.376,1.534,5.524,2.457c8.9,3.374,20.871,5.218,33.454,5.218c2.762,0,5.218,0,7.979-0.308v-2.763l0,0l0,0v-8.288
	c-2.454,0.309-5.217,0.309-7.979,0.309c-11.356,0-21.791-1.537-29.465-4.604c-7.672-2.763-9.514-5.833-9.514-6.446v-6.752
	c1.534,0.919,3.375,1.534,5.524,2.454c8.9,3.376,20.87,5.219,33.454,5.219c2.762,0,5.218,0,7.979-0.308v-2.762
	c0-2.455,0.308-5.524,1.842-9.207c-3.069,0.305-6.445,0.305-9.821,0.305c-11.356,0-21.791-1.533-29.465-4.603
	c-7.672-2.762-9.514-5.831-9.514-6.445v-6.753c1.534,0.922,3.375,1.536,5.524,2.456c8.9,3.377,20.87,5.218,33.454,5.218
	c6.752,0,13.198-0.613,19.029-1.534c3.376-2.455,7.366-4.911,12.891-6.753c5.218-1.842,11.664-3.375,18.108-4.604v-8.9v-0.307l0,0
	v-0.308V97.24v-0.308l0,0v-0.306V75.755V75.45c0-4.912-2.763-11.664-16.574-16.882c-8.9-3.375-20.87-5.217-33.454-5.217
	s-24.246,1.842-33.454,5.217C3.075,63.786,0.313,70.538,0.313,75.45v21.177v0.306l0,0v21.178v0.308l0,0v0.307v20.87v0.307v0.308l0,0
	v21.175v0.309l0,0V182.563L0.313,182.563z M20.57,68.39c7.672-2.762,18.415-4.604,29.463-4.604c11.357,0,21.792,1.536,29.464,4.604
	c7.366,2.763,9.208,5.525,9.515,6.446v0.307c0,0.92-1.842,3.682-9.515,6.445c-7.673,2.761-18.415,4.603-29.464,4.603
	c-11.356,0-21.791-1.535-29.463-4.603c-7.673-2.763-9.515-5.832-9.515-6.445C11.362,73.915,12.897,71.152,20.57,68.39z
	 M11.362,89.261c1.535,0.92,3.376,1.535,5.524,2.455c8.9,3.376,20.871,5.218,33.454,5.218c12.584,0,24.247-1.842,33.455-5.218
	c2.148-0.92,3.99-1.535,5.524-2.455v6.753l0,0l0,0l0,0c0,0.92-1.842,3.682-9.515,6.444c-7.673,2.763-18.415,4.604-29.464,4.604
	c-11.356,0-21.791-1.535-29.465-4.604c-7.672-2.762-9.514-5.831-9.514-6.444V89.261L11.362,89.261z M11.362,110.745
	c1.535,0.92,3.376,1.535,5.524,2.455c8.9,3.377,20.871,5.218,33.454,5.218c12.584,0,24.247-1.841,33.455-5.218
	c2.148-0.919,3.99-1.535,5.524-2.455v6.751l0,0l0,0l0,0c0,0.921-1.842,3.684-9.515,6.446s-18.415,4.604-29.464,4.604
	c-11.356,0-21.791-1.535-29.465-4.604c-7.672-2.763-9.514-5.833-9.514-6.446V110.745L11.362,110.745z M69.063,202.206v20.87v0.308
	c0,4.911,2.762,11.662,16.574,16.882c8.9,3.374,20.87,5.218,33.454,5.218c12.584,0,24.247-1.844,33.455-5.218
	c13.812-5.22,16.573-11.971,16.573-16.882v-0.308l0,0v-20.87v-0.308l0,0v-0.305v-20.871v-0.307l0,0v-0.308v-20.871v-0.308
	c0-4.909-2.762-11.661-16.573-16.879c-8.9-3.376-20.87-5.217-33.455-5.217c-12.583,0-24.246,1.841-33.454,5.217
	c-13.812,5.218-16.574,11.97-16.574,16.879v21.179v0.308l0,0v21.178C69.063,201.594,69.063,201.9,69.063,202.206L69.063,202.206
	L69.063,202.206z M89.626,152.179c7.674-2.761,18.416-4.604,29.464-4.604c11.356,0,21.792,1.535,29.464,4.604
	c7.366,2.763,9.209,5.524,9.516,6.445v0.306c0,0.922-1.844,3.685-9.516,6.447c-7.673,2.763-18.415,4.603-29.464,4.603
	c-11.355,0-21.79-1.533-29.464-4.603c-7.673-2.763-9.515-5.832-9.515-6.447C80.112,158.011,81.954,155.249,89.626,152.179z
	 M80.112,173.357c1.535,0.919,3.376,1.533,5.525,2.455c8.9,3.373,20.87,5.217,33.454,5.217c12.584,0,24.247-1.844,33.455-5.217
	c2.148-0.922,3.989-1.536,5.524-2.455v6.751l0,0l0,0l0,0c0,0.921-1.843,3.685-9.515,6.447c-7.673,2.759-18.415,4.603-29.464,4.603
	c-11.355,0-21.791-1.535-29.464-4.603c-7.673-2.763-9.514-5.833-9.514-6.447V173.357L80.112,173.357z M80.112,194.84
	c1.535,0.922,3.376,1.536,5.525,2.455c8.9,3.378,20.87,5.218,33.454,5.218c12.584,0,24.247-1.84,33.455-5.218
	c2.148-0.919,3.989-1.533,5.524-2.455v6.754l0,0l0,0l0,0c0,0.919-1.843,3.683-9.515,6.443c-7.673,2.763-18.415,4.604-29.464,4.604
	c-11.355,0-21.791-1.534-29.464-4.604c-7.673-2.761-9.514-5.831-9.514-6.443V194.84L80.112,194.84z M80.112,216.326
	c1.535,0.918,3.376,1.533,5.525,2.454c8.9,3.378,20.87,5.218,33.454,5.218c12.584,0,24.247-1.84,33.455-5.218
	c2.148-0.921,3.989-1.536,5.524-2.454v6.75c0,0.922-1.843,3.685-9.515,6.446c-7.673,2.763-18.415,4.604-29.464,4.604
	c-11.355,0-21.791-1.534-29.464-4.604c-7.673-2.762-9.514-5.831-9.514-6.446V216.326L80.112,216.326z"/>
</svg>
