<?xml version="1.0" encoding="utf-8"?>
<!-- Generator: Adobe Illustrator 16.0.0, SVG Export Plug-In . SVG Version: 6.00 Build 0)  -->
<!DOCTYPE svg PUBLIC "-//W3C//DTD SVG 1.1//EN" "http://www.w3.org/Graphics/SVG/1.1/DTD/svg11.dtd">
<svg version="1.1" id="Layer_1" xmlns="http://www.w3.org/2000/svg" xmlns:xlink="http://www.w3.org/1999/xlink" x="0px" y="0px"
	 width="300px" height="300px" viewBox="0 0 300 300" enable-background="new 0 0 300 300" xml:space="preserve">
<path fill="#876F4A" d="M248.14,189.246h-69.985l36.744-75.931l6.066-12.549c0.729-1.956,1.387-3.948,1.953-5.976
	c1.785-6.39,2.809-13.098,2.809-20.061c0-41.232-33.436-74.662-74.671-74.662S76.388,33.497,76.388,74.729
	c0,6.96,1.026,13.668,2.811,20.061c0.564,2.028,1.221,4.02,1.95,5.976l6.069,12.546l36.735,75.934H53.975L1.06,300.07h300
	L248.14,189.246z M151.059,48.017c14.751,0,26.721,11.964,26.721,26.712c0,14.76-11.967,26.715-26.721,26.715
	c-14.754,0-26.715-11.961-26.715-26.715C124.343,59.98,136.304,48.017,151.059,48.017z M108.674,216.643
	c12.559,1.707,19.933,10.47,28.965,21.351c14.355,17.283,32.22,38.8,79.888,38.8c29.15,0,47.002-5.295,53.178-15.721l13.57,28.414
	H108.674V216.643z M252.883,223.743c-18.564,0.045-39.259-0.126-49.417-10.26c-3.491-3.492-5.438-8.028-6.048-13.659h44.056
	L252.883,223.743z M151.059,245.251l21.98-45.424h19.105c0.678,7.065,3.141,12.96,7.586,17.406
	c11.197,11.175,31.756,11.805,50.68,11.805c1.233,0,2.454,0,3.67,0l1.334-0.006l12.184,25.513c-0.171,0.933-0.42,1.859-0.84,2.763
	c-2.979,6.48-13.938,14.196-49.222,14.196c-45.181,0-61.458-19.597-75.814-36.892c-9.195-11.063-17.997-21.468-33.036-23.247V199.83
	h20.403L151.059,245.251z M60.646,199.827h42.739v11.188c-23.101,0.183-33.535,8.049-41.919,14.405
	c-5.521,4.18-10.062,7.585-17.076,8.467L60.646,199.827z M41.771,239.358c10.344-0.3,16.464-4.863,22.887-9.72
	c8.154-6.181,17.436-13.144,38.728-13.314v73.162H17.839L41.771,239.358z"/>
</svg>
