<?xml version="1.0" encoding="iso-8859-1"?>
<!-- Generator: Adobe Illustrator 16.0.0, SVG Export Plug-In . SVG Version: 6.00 Build 0)  -->
<!DOCTYPE svg PUBLIC "-//W3C//DTD SVG 1.1//EN" "http://www.w3.org/Graphics/SVG/1.1/DTD/svg11.dtd">
<svg version="1.1" id="Capa_1" xmlns="http://www.w3.org/2000/svg" xmlns:xlink="http://www.w3.org/1999/xlink" x="0px" y="0px"
	 width="489.961px" height="489.961px" viewBox="0 0 489.961 489.961" style="enable-background:new 0 0 489.961 489.961;"
	 xml:space="preserve">
<g>
	<g id="icons_3_">
		<g>
			<path d="M288.569,364.701c-0.688-0.703-1.443-1.199-2.251-1.474c-0.84-0.285-1.611-0.43-2.301-0.43
				c-0.688,0-1.463,0.145-2.302,0.43c-0.806,0.273-1.563,0.77-2.251,1.474c-0.699,0.717-1.304,1.735-1.798,3.028
				c-0.498,1.307-0.751,3.035-0.751,5.138c0,2.104,0.253,3.832,0.751,5.136c0.494,1.295,1.099,2.314,1.798,3.031
				c0.688,0.703,1.445,1.199,2.251,1.473c0.837,0.285,1.611,0.43,2.302,0.43c0.689,0,1.463-0.145,2.301-0.43
				c0.808-0.273,1.563-0.77,2.251-1.473c0.698-0.715,1.305-1.734,1.798-3.031c0.498-1.306,0.752-3.033,0.752-5.136
				c0-2.101-0.253-3.829-0.752-5.138C289.874,366.434,289.268,365.416,288.569,364.701z"/>
			<polygon points="364.714,377.768 370.23,377.768 367.575,368.643 			"/>
			<path d="M245.887,367.413c-0.576-0.922-1.456-1.73-2.613-2.402c-1.15-0.666-2.779-1.004-4.841-1.004h-3.142v17.721h4.022
				c1.73,0,3.125-0.309,4.145-0.918c1.032-0.615,1.83-1.377,2.371-2.262c0.556-0.908,0.931-1.9,1.115-2.945
				c0.195-1.092,0.292-2.086,0.292-2.955c0-0.584-0.079-1.389-0.237-2.391C246.85,369.311,246.476,368.354,245.887,367.413z"/>
			<path d="M482.381,296.278H196.672c-4.184,0-7.578,3.642-7.578,8.133v136.912c0,4.492,3.394,8.133,7.578,8.133h19.636v14.619
				c0,4.061,3.884,7.24,8.845,7.24c4.96,0,8.844-3.18,8.844-7.24v-14.619h216.877v15.342c0,4.059,3.887,7.24,8.847,7.24
				c4.959,0,8.844-3.182,8.844-7.24v-15.342h13.816c4.186,0,7.579-3.641,7.579-8.133V304.411
				C489.959,299.919,486.566,296.278,482.381,296.278z M259.506,381.2c-0.838,2.529-2.132,4.709-3.85,6.484
				s-3.918,3.156-6.535,4.105c-2.596,0.939-5.674,1.416-9.149,1.416h-17.487c-0.391,0-0.708-0.316-0.708-0.707v-39.263
				c0-0.392,0.317-0.708,0.708-0.708h19.852c3.356,0,6.248,0.589,8.591,1.75c2.34,1.162,4.265,2.711,5.717,4.604
				c1.443,1.881,2.503,4.074,3.147,6.52c0.637,2.414,0.958,4.906,0.958,7.412C260.751,375.877,260.332,378.701,259.506,381.2z
				 M303.155,381.393c-0.981,2.59-2.394,4.854-4.191,6.729c-1.803,1.877-4.001,3.365-6.534,4.424
				c-2.534,1.059-5.364,1.596-8.411,1.596c-3.049,0-5.879-0.537-8.412-1.596c-2.534-1.059-4.731-2.547-6.532-4.424
				c-1.801-1.875-3.212-4.139-4.193-6.729c-0.979-2.578-1.478-5.446-1.478-8.526c0-3.079,0.498-5.947,1.478-8.526
				c0.982-2.591,2.394-4.854,4.193-6.728c1.799-1.876,3.997-3.365,6.532-4.425c2.533-1.059,5.363-1.594,8.412-1.594
				c3.047,0,5.878,0.537,8.411,1.594c2.534,1.06,4.732,2.548,6.534,4.425c1.799,1.875,3.209,4.137,4.191,6.728
				c0.979,2.582,1.478,5.45,1.478,8.526C304.632,375.945,304.134,378.813,303.155,381.393z M345.156,392.499
				c0,0.391-0.315,0.707-0.708,0.707h-11.768c-0.256,0-0.491-0.139-0.616-0.361l-10.826-19.281v18.936
				c0,0.391-0.317,0.707-0.71,0.707h-11.437c-0.393,0-0.708-0.316-0.708-0.707v-39.263c0-0.392,0.315-0.708,0.708-0.708h12.371
				c0.261,0,0.499,0.141,0.623,0.369l10.217,18.766v-18.428c0-0.391,0.317-0.709,0.71-0.709h11.436c0.393,0,0.708,0.318,0.708,0.709
				V392.499z M388.359,392.903c-0.133,0.189-0.35,0.303-0.58,0.303h-12.538c-0.313,0-0.591-0.207-0.679-0.51l-1.501-5.1h-11.433
				l-1.604,5.113c-0.092,0.295-0.366,0.496-0.675,0.496h-12.152c-0.23,0-0.448-0.113-0.581-0.303s-0.163-0.434-0.084-0.65
				l14.461-39.262c0.104-0.277,0.369-0.463,0.665-0.463h11.823c0.297,0,0.563,0.186,0.664,0.466l14.298,39.261
				C388.523,392.473,388.491,392.715,388.359,392.903z M419.72,362.96c0,0.39-0.316,0.708-0.708,0.708h-10.289v28.49
				c0,0.393-0.317,0.709-0.709,0.709h-12.097c-0.392,0-0.71-0.316-0.71-0.709v-28.49h-10.289c-0.392,0-0.706-0.316-0.706-0.708
				v-10.063c0-0.391,0.314-0.707,0.706-0.707h34.094c0.392,0,0.708,0.316,0.708,0.707V362.96L419.72,362.96z M457.277,392.159
				c0,0.393-0.315,0.709-0.708,0.709h-33.103c-0.393,0-0.708-0.316-0.708-0.709v-39.262c0-0.391,0.315-0.707,0.708-0.707h32.498
				c0.391,0,0.707,0.316,0.707,0.707v10.063c0,0.39-0.316,0.708-0.707,0.708h-19.693v3.479h17.824c0.391,0,0.707,0.316,0.707,0.707
				v9.349c0,0.392-0.316,0.708-0.707,0.708h-17.824v3.479h20.298c0.393,0,0.708,0.316,0.708,0.707V392.159z"/>
			<path d="M101.433,96.307c24.119-0.085,43.648-19.663,43.648-43.793c0-24.15-19.529-43.719-43.648-43.804
				C77.313,8.795,57.785,28.364,57.785,52.514C57.784,76.643,77.313,96.221,101.433,96.307z"/>
			<path d="M156.211,178.2c20.372,16.937,43.555,32.108,69.184,39.414c0.89,0.254,2.682,0.69,2.682,2.768c0,2.077,0,29.335,0,29.335
				c0,7.184,5.824,13.006,13.007,13.006h17.342c7.183,0,13.007-5.822,13.007-13.006v-49.859h-0.027
				c-0.211-7.251-4.481-13.805-14.101-15.258c-48.65-7.331-88.269-48.844-101.274-58.336c-13.006-9.492-18.968-12.735-26.555-15.716
				c-7.587-2.98-19.453-4.728-28.044-4.801c-8.591,0.073-14.777,0.375-18.593,0.811C16.845,114.3-5.088,191.898,0.961,250.145
				c0.005,0,0.011,0,0.016,0c0.869,10.594,9.726,18.924,20.543,18.924c11.393,0,20.161-7.238,20.161-18.631
				c0-2.282-1.151-7.926-2.25-13.615c-0.96-4.968-3.112-40.958,9.587-59.202c0.996-1.432,2.141-1.761,2.141,0.23
				c-0.016,40.397-2.826,216.935-2.826,279.708c0,33.615,45.356,29.498,45.356,0c0-50.057,1.464-139.707,1.464-150.102
				s13.688-8.13,13.688-0.309c0,7.822,0.332,100.354,0.332,150.41c0,29.91,45.356,31.557,45.356,0
				c0-62.773-2.809-275.778-2.809-278.047C151.722,175.716,154.919,177.125,156.211,178.2z"/>
		</g>
	</g>
</g>
<g>
</g>
<g>
</g>
<g>
</g>
<g>
</g>
<g>
</g>
<g>
</g>
<g>
</g>
<g>
</g>
<g>
</g>
<g>
</g>
<g>
</g>
<g>
</g>
<g>
</g>
<g>
</g>
<g>
</g>
</svg>
